<?xml version="1.0" encoding="utf-8"?>
<!-- Generator: Adobe Illustrator 16.0.0, SVG Export Plug-In . SVG Version: 6.00 Build 0)  -->
<!DOCTYPE svg PUBLIC "-//W3C//DTD SVG 1.1//EN" "http://www.w3.org/Graphics/SVG/1.1/DTD/svg11.dtd">
<svg version="1.1" id="Layer_1" xmlns="http://www.w3.org/2000/svg" xmlns:xlink="http://www.w3.org/1999/xlink" x="0px" y="0px"
	 width="176.6px" height="176.667px" viewBox="0 0 176.6 176.667" enable-background="new 0 0 176.6 176.667" xml:space="preserve">
<g>
	<path fill="#1B9686" d="M130.546,108.26c27.648,1.182,46.419,3.073,46.419,3.073s-22.103-35.442-53.666-53.438
		c4.399,15.189,7.232,31.036,7.232,44.374C130.531,104.297,130.538,106.293,130.546,108.26z"/>
	<path fill="#1B9686" d="M53.3,57.895C21.737,75.891-0.367,111.333-0.367,111.333s18.772-1.892,46.422-3.073
		c0.007-1.967,0.015-3.963,0.015-5.991C46.069,88.931,48.901,73.084,53.3,57.895z"/>
	<path fill="#FFFFFF" d="M88.299,113c15.644,0,29.813,15.724,40.113,31.543c2.266-9.963,2.188-22.323,2.134-36.282
		c-0.008-1.967-0.015-3.963-0.015-5.991c0-13.338-2.833-29.184-7.232-44.374C114.537,27.643,99.551,0,88.298,0
		C77.045,0,62.061,27.643,53.3,57.895c-4.399,15.189-7.231,31.036-7.231,44.374c0,2.028-0.007,4.024-0.015,5.991
		c-0.055,13.958-0.132,26.318,2.132,36.28C58.486,128.722,72.656,113,88.299,113z M88.299,87.27c4.143,0,7.5,3.358,7.5,7.5
		s-3.357,7.5-7.5,7.5c-4.142,0-7.5-3.358-7.5-7.5S84.157,87.27,88.299,87.27z M73.549,64.75c0-8.146,6.604-14.75,14.75-14.75
		c8.146,0,14.75,6.604,14.75,14.75S96.445,79.5,88.299,79.5C80.153,79.5,73.549,72.896,73.549,64.75z M88.299,27.231
		c4.143,0,7.5,3.358,7.5,7.5s-3.357,7.5-7.5,7.5c-4.142,0-7.5-3.358-7.5-7.5S84.157,27.231,88.299,27.231z"/>
	<path fill="#1B9686" d="M88.299,113c-15.643,0-29.813,15.723-40.112,31.541C37.76,160.554,31.3,176.667,31.3,176.667
		s25.521-4,56.999-4c31.479,0,56.999,4,56.999,4s-6.46-16.111-16.886-32.125C118.112,128.723,103.942,113,88.299,113z"/>
	<circle fill="#54C2B3" cx="88.299" cy="34.731" r="7.5"/>
	<circle fill="#54C2B3" cx="88.299" cy="94.77" r="7.5"/>
	<circle fill="#54C2B3" cx="88.299" cy="64.75" r="14.75"/>
</g>
</svg>
